<?xml version="1.0" encoding="UTF-8"?>
<!DOCTYPE svg PUBLIC "-//W3C//DTD SVG 1.1//EN" "http://www.w3.org/Graphics/SVG/1.1/DTD/svg11.dtd">
<!-- Creator: CorelDRAW -->
<svg xmlns="http://www.w3.org/2000/svg" xml:space="preserve" width="4.54707in" height="4.54707in" version="1.1" style="shape-rendering:geometricPrecision; text-rendering:geometricPrecision; image-rendering:optimizeQuality; fill-rule:evenodd; clip-rule:evenodd"
viewBox="0 0 6009.48 6009.48"
 xmlns:xlink="http://www.w3.org/1999/xlink"
 xmlns:xodm="http://www.corel.com/coreldraw/odm/2003">
 <defs>
  <style type="text/css">
   <![CDATA[
    .fil0 {fill:#A91E45}
   ]]>
  </style>
 </defs>
 <g id="Layer_x0020_1">
  <metadata id="CorelCorpID_0Corel-Layer"/>
  <path class="fil0" d="M5016.41 993.09c-149.37,-379.86 -346.67,-583.24 -769.56,-760.96 -754.63,-317.13 -1986.19,-332.62 -2737.51,99.35 -246.03,141.46 -397.16,298.11 -512.06,597.83 -9,23.46 -17.36,47.53 -25.14,72.12 -366.44,148.4 -565.58,346.16 -740.01,761.21 -317.13,754.62 -332.62,1986.18 99.35,2737.51 141.46,246.03 298.11,397.16 597.83,512.06 16.38,6.29 33.08,12.24 50.03,17.93 5.69,16.95 11.66,33.64 17.94,50.02 114.9,299.72 266.03,456.37 512.06,597.83 751.33,431.97 1982.89,416.48 2737.51,99.35 415.04,-174.43 612.8,-373.56 761.2,-740.01 24.59,-7.77 48.67,-16.14 72.12,-25.13 299.72,-114.9 456.37,-266.03 597.83,-512.06 431.97,-751.33 416.48,-1982.89 99.35,-2737.51 -177.72,-422.88 -381.1,-620.19 -760.95,-769.56zm20.94 2997.52c-81.6,-323.28 -224.28,-643.64 -396.12,-942.32 2.16,-25.4 0.97,-51.72 -4.34,-79.59 169.84,-294.03 311.62,-609.25 394.78,-927.74 16.05,32.78 31.6,67.87 46.86,105.57 204.74,505.83 220.54,1321.81 -41.18,1844.08zm-1067.42 1040.37c-244.12,-64.47 -467.63,-141.65 -683.43,-246.14 -95.08,-46.04 -186.38,-93.99 -274.63,-143.85 -5.44,0.51 -10.82,0.85 -16.15,1.06 -87.66,49.48 -178.35,97.08 -272.75,142.8 -222.23,107.61 -452.65,186.26 -705.34,251.88 522.2,262.37 1339.08,246.72 1845.31,41.81 38.25,-15.48 73.8,-31.26 106.98,-47.55zm-1911.76 -1079.68c-28.15,-24.64 -56.25,-49.56 -84.33,-74.75 -88.27,-79.2 -136.55,-140.5 -208.83,-209.14 -18.31,-17.39 -41.77,-42.93 -67.66,-73.05 -46.6,117.98 -83.87,241.32 -116.8,374.26 -36.94,149.16 -40.53,318.69 -12.03,472.36 153.67,28.5 323.2,24.91 472.35,-12.03 132.95,-32.94 256.28,-70.2 374.27,-116.8 -30.12,-25.9 -55.66,-49.36 -73.05,-67.67 -68.65,-72.28 -129.94,-120.56 -209.15,-208.83 -25.2,-28.09 -50.12,-56.18 -74.77,-84.34zm-690.73 -937.54c0.19,-5.35 0.54,-10.74 1.05,-16.2 -49.85,-88.23 -97.8,-179.53 -143.84,-274.59 -104.49,-215.79 -181.68,-439.31 -246.14,-683.44 -16.3,33.19 -32.08,68.74 -47.56,106.99 -204.91,506.23 -220.56,1323.11 41.81,1845.32 65.62,-252.69 144.27,-483.12 251.89,-705.35 45.71,-94.4 93.32,-185.08 142.79,-272.73zm341.82 -569.1c55.99,-63.09 120.1,-130.63 191.36,-200.95 74.65,-90.92 152.09,-180.48 232.32,-269.89 79.21,-88.27 140.5,-136.55 209.15,-208.83 16.51,-17.39 40.37,-39.42 68.53,-63.78 -191.19,-81.77 -388.61,-137.12 -583.01,-149.48 -86.5,-5.49 -177.13,-0.63 -259.46,18.76 -28.1,153.14 -24.39,321.84 12.39,470.35 35.69,144.09 76.49,276.87 128.72,403.81zm1331.6 -1072.08c294.06,-169.87 609.32,-311.56 927.83,-394.72 -32.82,-16.07 -67.97,-31.65 -105.73,-46.94 -505.86,-204.76 -1321.92,-220.54 -1844.17,41.23 323.29,81.61 643.66,224.23 942.35,396.08 25.44,-2.17 51.8,-0.99 79.73,4.34zm1141.02 179.15c85.83,-5.45 175.74,-0.7 257.55,18.32 19.02,81.81 23.76,171.71 18.31,257.54 -12.98,204.21 -73.4,411.78 -162.07,611.93 -98.27,-110.27 -221.08,-233.93 -363.23,-362 -128.24,-142.35 -252.09,-265.38 -362.48,-363.75 200.15,-88.66 407.7,-149.05 611.91,-162.04zm257.11 2889.59c-153.14,28.1 -321.86,24.39 -470.37,-12.39 -144.07,-35.69 -276.85,-76.47 -403.77,-128.69 63.17,-56.06 130.81,-120.29 201.23,-191.67 90.81,-74.57 180.27,-151.91 269.57,-232.04 88.27,-79.2 136.55,-140.5 208.83,-209.14 17.39,-16.52 39.43,-40.38 63.79,-68.55 81.78,191.18 137.12,388.62 149.48,583.01 5.49,86.5 0.63,177.14 -18.76,259.46zm-1963.47 -907.45c-21.99,-23.99 -42.45,-46.97 -67.11,-71.28 -51.05,-50.34 -162.22,-199.28 -201.11,-267.59 -53.95,-94.77 -91.96,-168.62 -36.12,-286.53 44.37,-93.69 89.95,-153.31 145.78,-224.53 91.86,-117.17 233.23,-266.2 407.3,-417.4 34.67,-24.61 67.07,-46.08 90.21,-59.25 94.77,-53.95 168.62,-91.96 286.53,-36.12 93.69,44.37 153.31,89.95 224.53,145.78 58.29,45.7 124.47,103.66 194.87,171.79 68.27,70.51 126.35,136.81 172.12,195.2 55.83,71.22 101.41,130.83 145.78,224.53 55.84,117.92 17.83,191.76 -36.12,286.53 -13.17,23.13 -34.62,55.5 -59.22,90.16 -151.21,174.09 -300.25,315.47 -417.43,407.34 -71.22,55.83 -130.83,101.41 -224.53,145.78 -117.92,55.84 -191.76,17.83 -286.53,-36.12 -68.3,-38.89 -217.25,-150.06 -267.59,-201.11 -24.34,-24.68 -47.34,-45.16 -71.37,-67.18z"/>
 </g>
</svg>
