<?xml version="1.0" encoding="UTF-8"?>
<!DOCTYPE svg PUBLIC "-//W3C//DTD SVG 1.1//EN" "http://www.w3.org/Graphics/SVG/1.1/DTD/svg11.dtd">
<!-- Creator: CorelDRAW -->
<svg xmlns="http://www.w3.org/2000/svg" xml:space="preserve" width="4in" height="4in" version="1.1" style="shape-rendering:geometricPrecision; text-rendering:geometricPrecision; image-rendering:optimizeQuality; fill-rule:evenodd; clip-rule:evenodd"
viewBox="0 0 1329.29 1329.29"
 xmlns:xlink="http://www.w3.org/1999/xlink"
 xmlns:xodm="http://www.corel.com/coreldraw/odm/2003">
 <defs>
  <style type="text/css">
   <![CDATA[
    .fil1 {fill:#FEFEFE}
    .fil0 {fill:#4F46E5}
   ]]>
  </style>
 </defs>
 <g id="Layer_x0020_1">
  <metadata id="CorelCorpID_0Corel-Layer"/>
  <g id="_1809324751008">
   <polygon class="fil0" points="-0,0 1329.29,0 1329.29,1329.29 -0,1329.29 "/>
   <path class="fil1" d="M377.85 336.16l51.38 0 110.1 122.26c-25.45,3.18 -50.08,14.54 -69.62,34.09 -46.69,46.69 -46.69,122.4 0,169.09 43.68,43.68 153.16,67.46 153.16,-28.75 0,-16.74 18.7,-59.95 41.78,-59.95 23.07,0 41.78,43.21 41.78,59.95 0,96.21 109.48,72.43 153.16,28.75 46.7,-46.69 46.69,-122.4 0,-169.09 -19.54,-19.54 -44.17,-30.9 -69.62,-34.09l110.1 -122.26 51.38 0 146.73 146.73 0 363.49 -146.73 146.73 -189.92 0c-11.44,-53.79 22.7,-47.68 22.7,-107.2 0,-66.04 -53.53,-119.57 -119.57,-119.57 -66.04,0 -119.57,53.53 -119.57,119.57 0,59.53 34.13,53.41 22.7,107.2l-189.92 0 -146.73 -146.73 0 -363.49 146.73 -146.73z"/>
  </g>
 </g>
</svg>
