<?xml version="1.0" encoding="UTF-8"?>
<!DOCTYPE svg PUBLIC "-//W3C//DTD SVG 1.1//EN" "http://www.w3.org/Graphics/SVG/1.1/DTD/svg11.dtd">
<!-- Creator: CorelDRAW -->
<svg xmlns="http://www.w3.org/2000/svg" xml:space="preserve" width="0.520827in" height="0.520827in" version="1.1" style="shape-rendering:geometricPrecision; text-rendering:geometricPrecision; image-rendering:optimizeQuality; fill-rule:evenodd; clip-rule:evenodd"
viewBox="0 0 520.83 520.83"
 xmlns:xlink="http://www.w3.org/1999/xlink"
 xmlns:xodm="http://www.corel.com/coreldraw/odm/2003">
 <defs>
  <style type="text/css">
   <![CDATA[
    .fil2 {fill:none}
    .fil0 {fill:#5A3E92}
    .fil1 {fill:#FEFEFE}
   ]]>
  </style>
   <clipPath id="id0">
    <path d="M-0 520.83l520.83 0 0 -520.83 -520.83 0 0 520.83z"/>
   </clipPath>
 </defs>
 <g id="Layer_x0020_1">
  <metadata id="CorelCorpID_0Corel-Layer"/>
  <g>
  </g>
  <g style="clip-path:url(#id0)">
   <g id="_2188924306352">
    <path class="fil0" d="M260.41 -0c143.83,0 260.42,116.59 260.42,260.42 0,143.83 -116.59,260.42 -260.42,260.42 -143.83,0 -260.42,-116.59 -260.42,-260.42 0,-143.83 116.59,-260.42 260.42,-260.42z"/>
    <path class="fil1" d="M147.37 129.74l20.26 0 43.39 48.63c-10.03,1.27 -19.74,5.79 -27.44,13.56 -18.4,18.57 -18.4,48.69 0,67.26 17.22,17.37 60.37,26.83 60.37,-11.44 0,-6.65 7.37,-23.85 16.46,-23.85 9.09,0 16.46,17.19 16.46,23.85 0,38.28 43.15,28.82 60.37,11.44 18.4,-18.58 18.4,-48.7 0,-67.26 -7.7,-7.78 -17.41,-12.3 -27.44,-13.56l43.39 -48.63 20.26 0 57.83 58.37 0 144.59 -57.83 58.37 -74.86 0c-4.5,-21.4 8.95,-18.96 8.95,-42.65 0,-26.27 -21.1,-47.56 -47.13,-47.56 -26.03,0 -47.13,21.3 -47.13,47.56 0,23.68 13.46,21.24 8.95,42.65l-74.86 0 -57.83 -58.37 0 -144.59 57.83 -58.37 0 0z"/>
   </g>
  </g>
  <polygon class="fil2" points="-0,520.83 520.83,520.83 520.83,0 -0,0 "/>
 </g>
</svg>
